<svg width="681" height="118" viewBox="0 0 681 118" fill="none" xmlns="http://www.w3.org/2000/svg">
<path d="M212.5 66.7L172.2 34.3C171.1 33.4 169.9 32.9 168.6 32.8C167.3 32.7 166.1 32.9 165 33.4C163.9 33.9 162.9 34.7 162.2 35.8C161.5 36.9 161.1 38.2 161.1 39.6V79.8H171.5V46.8L211.7 79.3C212.8 80.2 214 80.7 215.3 80.8C215.5 80.8 215.7 80.8 215.8 80.8C216.9 80.8 218 80.6 218.9 80.1C220 79.6 221 78.7 221.7 77.7C222.4 76.6 222.8 75.4 222.8 73.9V33.9H212.4V66.7H212.5Z" fill="#0B408B"/>
<path d="M301.8 40.6C299.7 38.5 297.2 36.9 294.5 35.7C291.7 34.5 288.7 33.9 285.5 33.9H251.5C248.3 33.9 245.3 34.5 242.6 35.7C239.8 36.9 237.4 38.5 235.3 40.6C233.2 42.7 231.5 45.1 230.3 47.9C229.1 50.7 228.5 53.7 228.5 56.9C228.5 60.1 229.1 63.1 230.3 65.8C231.5 68.6 233.2 71 235.3 73.1C237.4 75.2 239.8 76.9 242.6 78.1C245.4 79.3 248.4 79.9 251.5 79.9H285.5C288.7 79.9 291.7 79.3 294.5 78.1C297.3 76.9 299.8 75.2 301.8 73.1C303.9 71 305.6 68.6 306.8 65.8C308 63 308.6 60 308.6 56.9C308.6 53.7 308 50.7 306.8 47.9C305.6 45.1 303.9 42.6 301.8 40.6ZM285.5 69.4H251.5C249.8 69.4 248.1 69.1 246.6 68.4C245.1 67.8 243.7 66.8 242.6 65.7C241.5 64.6 240.6 63.2 239.9 61.7C239.3 60.2 238.9 58.5 238.9 56.8C238.9 55.1 239.2 53.4 239.9 51.9C240.6 50.4 241.5 49 242.6 47.9C243.7 46.8 245.1 45.9 246.6 45.2C248.1 44.6 249.8 44.2 251.5 44.2H285.5C287.2 44.2 288.9 44.5 290.4 45.2C291.9 45.9 293.3 46.8 294.4 47.9C295.5 49 296.4 50.4 297.1 51.9C297.7 53.4 298.1 55.1 298.1 56.8C298.1 58.5 297.8 60.2 297.1 61.7C296.5 63.2 295.5 64.6 294.4 65.7C293.3 66.8 291.9 67.7 290.4 68.4C288.9 69.1 287.2 69.4 285.5 69.4Z" fill="#0B408B"/>
<path d="M377.4 33.9H365.5L345.2 70C344.6 71.1 343.7 71.6 342.6 71.6H342.5C341.3 71.6 340.4 71.1 339.8 70L319.6 34L319.5 33.9H307.6L330.9 75C332.1 77.3 333.8 79 335.9 80.2C338 81.3 340.2 81.9 342.5 81.9C344.8 81.9 347 81.3 349.1 80.2C351.2 79.1 352.9 77.3 354.2 75L377.1 34.2L377.4 33.9Z" fill="#0B408B"/>
<path d="M387.5 35.1C385.5 36 383.7 37.2 382.2 38.7C380.7 40.2 379.5 42 378.7 44C377.8 46 377.4 48.2 377.4 50.5V63.3C377.4 65.6 377.8 67.8 378.7 69.8C379.6 71.8 380.8 73.6 382.2 75.1C383.7 76.6 385.5 77.8 387.5 78.6C389.5 79.5 391.7 79.9 394 79.9H445.4V69.4H394C392.3 69.4 390.8 68.8 389.6 67.6C388.4 66.4 387.8 64.9 387.8 63.2V62H442.3V51.5H387.8V50.4C387.8 48.7 388.4 47.2 389.6 46C390.8 44.8 392.3 44.2 394 44.2H445.4V33.9L394 33.8C391.7 33.8 389.5 34.2 387.5 35.1Z" fill="#0B408B"/>
<path d="M502.2 66.7L462 34.3C460.9 33.4 459.7 32.9 458.4 32.8C457.1 32.7 455.9 32.9 454.8 33.4C453.7 33.9 452.7 34.7 452 35.8C451.3 36.9 450.9 38.2 450.9 39.6V79.8H461.3V46.8L501.5 79.3C502.6 80.2 503.8 80.7 505.1 80.8C505.3 80.8 505.5 80.8 505.6 80.8C506.7 80.8 507.8 80.6 508.7 80.1C509.8 79.6 510.8 78.7 511.5 77.7C512.2 76.6 512.6 75.4 512.6 73.9V33.9H502.2V66.7V66.7Z" fill="#0B408B"/>
<path d="M518.1 44.3H542.1V79.9H553.5V44.3H577.5V33.9H518.1V44.3Z" fill="#0B408B"/>
<path d="M593.5 33.9H583V79.9H593.5V33.9Z" fill="#25AADD"/>
<path d="M680.8 78.1C680.5 78.1 674.3 78.1 674.1 78.1C672.6 78 671.3 77.4 670.2 76.3C670 76.1 669.8 75.8 669.6 75.6C670.6 74.9 671.6 74.1 672.5 73.2C674.6 71.1 676.3 68.6 677.5 65.9C678.7 63.1 679.3 60.1 679.3 56.9C679.3 53.7 678.7 50.7 677.5 47.9C676.3 45.1 674.6 42.6 672.5 40.6C670.4 38.5 667.9 36.9 665.1 35.7C662.3 34.5 659.3 33.9 656.1 33.9H622C618.8 33.9 615.8 34.5 613 35.7C610.2 36.9 607.8 38.6 605.7 40.6C603.6 42.7 601.9 45.1 600.7 47.9C599.5 50.7 598.9 53.7 598.9 56.9C598.9 60.1 599.5 63.1 600.7 65.9C601.9 68.7 603.6 71.1 605.7 73.2C607.8 75.3 610.2 77 613 78.2C615.8 79.4 618.8 80 622 80H656C657.3 80 658.5 79.9 659.7 79.7C660.5 81.2 661.5 82.6 662.7 83.8C664.2 85.3 666 86.5 668 87.4C669.9 88.2 672 88.7 674.1 88.7C674.2 88.7 680.7 88.7 680.7 88.7H680.9V78.1H680.8ZM668.6 56.8C668.6 58.6 668.3 60.2 667.6 61.7L667.4 62.1C666.8 63.5 665.9 64.7 664.9 65.7C663.7 66.9 662.4 67.8 660.9 68.4C660 68.8 659.1 69.1 658.1 69.2C657.4 69.3 656.7 69.4 656 69.4H621.9C620.2 69.4 618.5 69.1 617 68.4C615.5 67.8 614.1 66.8 613 65.7C611.9 64.6 611 63.2 610.3 61.7C609.7 60.2 609.3 58.6 609.3 56.8C609.3 55.1 609.6 53.4 610.3 51.9C611 50.4 611.9 49 613 47.9C614.1 46.8 615.5 45.9 617 45.2C618.5 44.5 620.2 44.2 621.9 44.2H656C657.7 44.2 659.4 44.5 660.9 45.2C662.4 45.9 663.8 46.8 664.9 47.9C666 49 666.9 50.4 667.6 51.9C668.3 53.4 668.6 55.1 668.6 56.8Z" fill="#25AADD"/>
<path d="M18.3 58.4C8.59999 75.2 8.79999 87 12.4 95.2C16 103.4 23.2 108 27.5 110.1C27.8 110.2 27.9 110.6 27.8 110.8C27.7 111 27.5 111.3 27.1 111.2C22.4 110.4 14.6 108.1 8.69999 101.3C2.79999 94.5 -1.00001 83.4 2.09999 64.8C3.09999 58.9 5.19999 53.4 8.09999 48.4C11 43.4 14.6 38.8 18.8 34.6C19.7 33.7 20.8 33.3 22 33.3C23.2 33.3 24.3 33.8 25.2 34.6L26.9 36.3L28.6 38C29.5 38.9 29.9 40 29.9 41.2C29.9 42.3 29.5 43.5 28.6 44.4C26.7 46.5 24.8 48.7 23.1 51C21.4 53.3 19.8 55.8 18.3 58.4Z" fill="#0B408B"/>
<path d="M93.8 12.5C89.5 13.2 83.5 14.5 76.7 16.5C69.8 18.6 62.1 21.4 54.4 25.4C53.8 25.7 53.2 25.8 52.6 25.7C52 25.6 51.4 25.3 51 24.9L48.3 22.3L45.6 19.7C44.9 19 44.6 18 44.7 17.2C44.8 16.3 45.4 15.5 46.3 15C52.8 11.5 59.1 8.7 64.8 6.4C70.5 4.1 75.4 2.5 79.1 1.3C81.1 0.699999 83.1 0.599999 85.1 0.899999C87.1 1.3 88.9 2.1 90.5 3.4L92.9 5.3L95.3 7.2C96.3 8 96.6 9.2 96.3 10.3C96 11.4 95 12.3 93.8 12.5Z" fill="#0B408B"/>
<path d="M48.9 74.1C49.5 75.2 50.6 76 51.8 76.2C53 76.4 54.2 76.2 55.2 75.3C59.2 72.1 66.1 67 74 61.9C81.9 56.8 90.8 51.6 99 47.9C109.9 43 116.8 42.5 121.8 42.4C132.1 42.2 135.8 49.7 136.1 49.1C137.1 47.1 134.1 38.2 128.2 34.7C124.3 32.3 118.5 30.2 109.5 30.2C98.6 30.2 85.2 36.2 73.2 43.2C61.2 50.2 50.8 58 46 61.8C45.2 62.4 44.7 63.3 44.5 64.3C44.3 65.2 44.5 66.2 45 67.1L47 70.6L48.9 74.1Z" fill="#0B408B"/>
<path d="M98.4 85.7L100.9 89.2L103.4 92.7C104.2 93.8 104.4 95.1 104.1 96.3C103.8 97.5 103 98.6 101.8 99.2C98.1 101.2 94.1 103.1 89.7 104.8C85.3 106.5 80.6 108 75.5 109.2C61.6 112.5 50.6 111.5 42.6 109.1C34.6 106.7 29.4 103 27 101C26.8 100.8 26.7 100.5 26.8 100.3C26.9 100.1 27.2 99.9 27.5 99.9C40.8 102 52.9 100.9 63.7 97.9C74.5 94.9 84 90.1 92.2 84.6C93.2 83.9 94.4 83.7 95.5 83.9C96.6 84.1 97.7 84.7 98.4 85.7Z" fill="#E31D22"/>
<path d="M131.7 66.3C131 67.7 129.9 69.9 128.1 72.6C126.3 75.3 124 78.6 121 82C120.6 82.5 120 82.8 119.4 82.8C118.8 82.8 118.2 82.6 117.8 82.1L113.2 77.5L108.6 72.9C108.1 72.4 107.9 71.8 107.9 71.1C107.9 70.4 108.1 69.8 108.6 69.3C111.4 66.1 113.8 63.1 115.8 60.5C117.8 57.9 119.2 55.7 120.3 54.1C120.7 53.4 121.4 53.1 122.1 53C122.8 53 123.5 53.2 123.9 53.9L127.7 58.6L131.5 63.3C131.8 63.7 132 64.2 132.1 64.7C132.2 65.2 132 65.8 131.7 66.3Z" fill="#25AADD"/>
<path d="M331.3 105.1H333.4V111.2C331.8 112.5 329.7 113.2 327.5 113.2C322.7 113.2 319.2 109.9 319.2 105.3C319.2 100.7 322.7 97.4 327.5 97.4C330 97.4 332 98.2 333.5 99.8L332.1 101.2C330.8 100 329.4 99.4 327.6 99.4C324 99.4 321.4 101.9 321.4 105.4C321.4 108.8 324 111.4 327.6 111.4C328.9 111.4 330.1 111.1 331.2 110.4V105.1H331.3Z" fill="#25AADD"/>
<path d="M337.3 96.5H339.4V113H337.3V96.5Z" fill="#25AADD"/>
<path d="M342.4 107C342.4 103.5 345 101 348.5 101C352 101 354.6 103.5 354.6 107C354.6 110.5 352 113 348.5 113C345 113 342.4 110.6 342.4 107ZM352.5 107C352.5 104.5 350.8 102.9 348.6 102.9C346.4 102.9 344.6 104.5 344.6 107C344.6 109.5 346.3 111.1 348.6 111.1C350.9 111.1 352.5 109.6 352.5 107Z" fill="#25AADD"/>
<path d="M369.7 107C369.7 110.6 367.2 113 363.8 113C362.1 113 360.6 112.3 359.6 111V112.9H357.6V96.4H359.7V102.9C360.7 101.6 362.1 101 363.8 101C367.2 101.1 369.7 103.5 369.7 107ZM367.6 107C367.6 104.5 365.9 102.9 363.6 102.9C361.4 102.9 359.7 104.5 359.7 107C359.7 109.5 361.4 111.1 363.6 111.1C365.9 111.2 367.6 109.6 367.6 107Z" fill="#25AADD"/>
<path d="M381.9 105.8V112.9H379.9V111.3C379.2 112.4 377.9 113 376 113C373.3 113 371.7 111.6 371.7 109.5C371.7 107.6 372.9 106.1 376.4 106.1H379.8V105.7C379.8 103.9 378.8 102.9 376.7 102.9C375.3 102.9 373.9 103.4 373 104.2L372.1 102.6C373.3 101.6 375.1 101.1 377 101.1C380.1 101.1 381.9 102.6 381.9 105.8ZM379.8 109.3V107.7H376.5C374.4 107.7 373.8 108.5 373.8 109.5C373.8 110.7 374.8 111.4 376.4 111.4C378 111.4 379.2 110.7 379.8 109.3Z" fill="#25AADD"/>
<path d="M385.8 96.5H387.9V113H385.8V96.5Z" fill="#25AADD"/>
<path d="M408.5 107.8H399C399.3 109.9 400.9 111.2 403.3 111.2C404.7 111.2 405.8 110.7 406.7 109.8L407.9 111.2C406.8 112.4 405.2 113.1 403.3 113.1C399.5 113.1 397 110.6 397 107.1C397 103.6 399.5 101.1 402.9 101.1C406.3 101.1 408.7 103.5 408.7 107.2C408.6 107.3 408.6 107.6 408.5 107.8ZM399 106.2H406.5C406.3 104.2 404.8 102.8 402.7 102.8C400.7 102.9 399.2 104.2 399 106.2Z" fill="#25AADD"/>
<path d="M418.7 112.9L415.3 108.4L411.9 112.9H409.5L414.1 106.9L409.7 101.2H412.1L415.3 105.4L418.5 101.2H420.8L416.4 106.9L421.1 112.9H418.7Z" fill="#25AADD"/>
<path d="M435.6 107C435.6 110.6 433.1 113 429.7 113C428 113 426.6 112.4 425.6 111.1V117.2H423.5V101.2H425.5V103.1C426.5 101.8 428 101.1 429.7 101.1C433.1 101.1 435.6 103.5 435.6 107ZM433.5 107C433.5 104.5 431.8 102.9 429.5 102.9C427.3 102.9 425.6 104.5 425.6 107C425.6 109.5 427.3 111.1 429.5 111.1C431.7 111.2 433.5 109.6 433.5 107Z" fill="#25AADD"/>
<path d="M449.1 107.8H439.6C439.9 109.9 441.5 111.2 443.9 111.2C445.3 111.2 446.4 110.7 447.3 109.8L448.5 111.2C447.4 112.4 445.8 113.1 443.9 113.1C440.1 113.1 437.6 110.6 437.6 107.1C437.6 103.6 440.1 101.1 443.5 101.1C446.9 101.1 449.3 103.5 449.3 107.2C449.2 107.3 449.1 107.6 449.1 107.8ZM439.6 106.2H447.1C446.9 104.2 445.4 102.8 443.3 102.8C441.3 102.9 439.8 104.2 439.6 106.2Z" fill="#25AADD"/>
<path d="M458.4 101.1V103.2C458.2 103.2 458.1 103.2 457.9 103.2C455.6 103.2 454.2 104.6 454.2 107.2V113.1H452.1V101.4H454.1V103.4C454.9 101.8 456.4 101.1 458.4 101.1Z" fill="#25AADD"/>
<path d="M468.1 112.2C467.5 112.8 466.5 113 465.5 113C463.1 113 461.8 111.7 461.8 109.3V102.8H459.8V101H461.8V98.4H463.9V101H467.3V102.8H464V109.2C464 110.5 464.7 111.2 465.8 111.2C466.4 111.2 467 111 467.5 110.6L468.1 112.2Z" fill="#25AADD"/>
<path d="M470.3 97.5C470.3 96.7 470.9 96.1 471.7 96.1C472.5 96.1 473.1 96.7 473.1 97.5C473.1 98.3 472.5 98.9 471.7 98.9C470.9 98.9 470.3 98.3 470.3 97.5ZM470.7 101.2H472.8V112.9H470.7V101.2Z" fill="#25AADD"/>
<path d="M475.4 111.7L476.3 110C477.3 110.7 478.9 111.2 480.4 111.2C482.4 111.2 483.2 110.6 483.2 109.6C483.2 107 475.8 109.2 475.8 104.6C475.8 102.5 477.7 101.1 480.7 101.1C482.2 101.1 484 101.5 485 102.2L484.1 103.9C483 103.2 481.9 103 480.7 103C478.8 103 477.9 103.7 477.9 104.6C477.9 107.4 485.3 105.1 485.3 109.7C485.3 111.8 483.3 113.2 480.2 113.2C478.3 113.1 476.4 112.5 475.4 111.7Z" fill="#25AADD"/>
<path d="M498.6 107.8H489C489.3 109.9 490.9 111.2 493.3 111.2C494.7 111.2 495.8 110.7 496.7 109.8L497.9 111.2C496.8 112.4 495.2 113.1 493.3 113.1C489.5 113.1 487 110.6 487 107.1C487 103.6 489.5 101.1 492.9 101.1C496.3 101.1 498.7 103.5 498.7 107.2C498.6 107.3 498.6 107.6 498.6 107.8ZM489 106.2H496.5C496.3 104.2 494.8 102.8 492.7 102.8C490.7 102.9 489.2 104.2 489 106.2Z" fill="#25AADD"/>
<path d="M503.5 111.5C503.5 111.9 503.4 112.3 503.1 113.1L502.1 116.2H500.7L501.5 112.9C500.9 112.7 500.6 112.2 500.6 111.5C500.6 110.6 501.2 110 502.1 110C502.9 110 503.5 110.7 503.5 111.5Z" fill="#25AADD"/>
<path d="M512.5 96.5H514.6V113H512.5V96.5Z" fill="#25AADD"/>
<path d="M517.6 107C517.6 103.5 520.2 101 523.7 101C527.2 101 529.8 103.5 529.8 107C529.8 110.5 527.2 113 523.7 113C520.2 113 517.6 110.6 517.6 107ZM527.7 107C527.7 104.5 526 102.9 523.8 102.9C521.6 102.9 519.8 104.5 519.8 107C519.8 109.5 521.5 111.1 523.8 111.1C526.1 111.1 527.7 109.6 527.7 107Z" fill="#25AADD"/>
<path d="M531.7 107C531.7 103.5 534.3 101 537.9 101C540 101 541.8 101.9 542.7 103.5L541.1 104.5C540.3 103.3 539.2 102.8 537.9 102.8C535.6 102.8 533.9 104.4 533.9 106.9C533.9 109.4 535.6 111 537.9 111C539.2 111 540.3 110.5 541.1 109.3L542.7 110.3C541.8 111.9 540 112.8 537.9 112.8C534.3 113.1 531.7 110.6 531.7 107Z" fill="#25AADD"/>
<path d="M554.7 105.8V112.9H552.7V111.3C552 112.4 550.7 113 548.8 113C546.1 113 544.5 111.6 544.5 109.5C544.5 107.6 545.7 106.1 549.2 106.1H552.6V105.7C552.6 103.9 551.6 102.9 549.5 102.9C548.1 102.9 546.7 103.4 545.8 104.2L544.9 102.6C546.1 101.6 547.9 101.1 549.8 101.1C552.9 101.1 554.7 102.6 554.7 105.8ZM552.6 109.3V107.7H549.3C547.2 107.7 546.6 108.5 546.6 109.5C546.6 110.7 547.6 111.4 549.2 111.4C550.8 111.4 552.1 110.7 552.6 109.3Z" fill="#25AADD"/>
<path d="M558.7 96.5H560.8V113H558.7V96.5Z" fill="#25AADD"/>
<path d="M569.7 107C569.7 103.5 572.3 101 575.8 101C579.3 101 581.9 103.5 581.9 107C581.9 110.5 579.3 113 575.8 113C572.3 113.1 569.7 110.6 569.7 107ZM579.8 107C579.8 104.5 578.1 102.9 575.9 102.9C573.6 102.9 571.9 104.5 571.9 107C571.9 109.5 573.6 111.1 575.9 111.1C578.1 111.2 579.8 109.6 579.8 107Z" fill="#25AADD"/>
<path d="M595.8 101.2V112.9H593.8V111.1C592.9 112.3 591.5 113 589.8 113C586.8 113 584.7 111.3 584.7 107.9V101.1H586.8V107.6C586.8 109.9 588 111.1 590 111.1C592.2 111.1 593.6 109.7 593.6 107.2V101.1H595.8V101.2Z" fill="#25AADD"/>
<path d="M606.5 112.2C605.9 112.8 604.9 113 603.9 113C601.5 113 600.2 111.7 600.2 109.3V102.8H598.2V101H600.2V98.4H602.3V101H605.7V102.8H602.3V109.2C602.3 110.5 603 111.2 604.1 111.2C604.7 111.2 605.3 111 605.8 110.6L606.5 112.2Z" fill="#25AADD"/>
<path d="M607.6 107C607.6 103.5 610.2 101 613.8 101C615.9 101 617.7 101.9 618.6 103.5L617 104.5C616.2 103.3 615.1 102.8 613.8 102.8C611.5 102.8 609.8 104.4 609.8 106.9C609.8 109.4 611.5 111 613.8 111C615.1 111 616.2 110.5 617 109.3L618.6 110.3C617.7 111.9 615.9 112.8 613.8 112.8C610.2 113.1 607.6 110.6 607.6 107Z" fill="#25AADD"/>
<path d="M620.1 107C620.1 103.5 622.7 101 626.2 101C629.7 101 632.3 103.5 632.3 107C632.3 110.5 629.7 113 626.2 113C622.7 113.1 620.1 110.6 620.1 107ZM630.1 107C630.1 104.5 628.4 102.9 626.2 102.9C623.9 102.9 622.2 104.5 622.2 107C622.2 109.5 623.9 111.1 626.2 111.1C628.4 111.2 630.1 109.6 630.1 107Z" fill="#25AADD"/>
<path d="M654.7 106.2V113H652.6V106.5C652.6 104.2 651.5 103.1 649.6 103.1C647.5 103.1 646.1 104.5 646.1 107V113.1H644V106.6C644 104.3 642.9 103.2 641 103.2C638.9 103.2 637.5 104.6 637.5 107.1V113.2H635.4V101.5H637.4V103.3C638.2 102.1 639.7 101.4 641.5 101.4C643.3 101.4 644.8 102.1 645.6 103.6C646.5 102.3 648.1 101.4 650.1 101.4C652.8 101.1 654.7 102.7 654.7 106.2Z" fill="#25AADD"/>
<path d="M669.3 107.8H659.8C660.1 109.9 661.7 111.2 664.1 111.2C665.5 111.2 666.6 110.7 667.5 109.8L668.7 111.2C667.6 112.4 666 113.1 664.1 113.1C660.3 113.1 657.8 110.6 657.8 107.1C657.8 103.6 660.3 101.1 663.7 101.1C667.1 101.1 669.5 103.5 669.5 107.2C669.3 107.3 669.3 107.6 669.3 107.8ZM659.7 106.2H667.2C667 104.2 665.5 102.8 663.4 102.8C661.5 102.9 660 104.2 659.7 106.2Z" fill="#25AADD"/>
<path d="M670.8 111.7L671.7 110C672.7 110.7 674.3 111.2 675.8 111.2C677.8 111.2 678.6 110.6 678.6 109.6C678.6 107 671.2 109.2 671.2 104.6C671.2 102.5 673.1 101.1 676.1 101.1C677.6 101.1 679.4 101.5 680.4 102.2L679.5 103.9C678.4 103.2 677.3 103 676.1 103C674.2 103 673.3 103.7 673.3 104.6C673.3 107.4 680.7 105.1 680.7 109.7C680.7 111.8 678.7 113.2 675.6 113.2C673.7 113.1 671.8 112.5 670.8 111.7Z" fill="#25AADD"/>
</svg>
